<svg width="72" height="72" viewBox="0 0 72 72" fill="none" xmlns="http://www.w3.org/2000/svg">
<path d="M49.103 11.642C50.3795 12.3491 51.6065 13.1503 52.7638 14.0491C53.9188 14.9482 55.0132 15.9429 55.9894 17.0457C57.934 19.2267 59.5131 21.6896 60.7456 24.3018C62.0553 27.0729 62.9554 30.0358 63.4704 33.0549C63.6352 34.0638 63.7562 35.0816 63.8197 36.1062C63.8762 37.1313 63.8798 38.1615 63.8228 39.1923C63.7638 40.2232 63.6301 41.253 63.4333 42.2741C63.3787 42.5285 63.3355 42.785 63.2709 43.0378L63.0802 43.7969L62.8549 44.5484C62.784 44.8002 62.6847 45.0441 62.6005 45.2923C62.5556 45.4155 62.5147 45.5401 62.4663 45.6622L62.3162 46.027C62.2158 46.2699 62.1171 46.517 62.0081 46.7432L61.6882 47.4367C61.5779 47.6663 61.4614 47.8932 61.3482 48.1216L61.1771 48.4636L60.9955 48.8006C60.8734 49.0247 60.7547 49.2507 60.6294 49.4732C60.3716 49.9144 60.1199 50.3593 59.8419 50.7894C59.576 51.2266 59.2815 51.6464 58.9961 52.072C58.6945 52.4867 58.4 52.9068 58.0791 53.3081C57.4492 54.1188 56.7786 54.901 56.0594 55.6387C55.3421 56.3775 54.5902 57.0857 53.7931 57.7423C52.996 58.3985 52.1629 59.0122 51.2974 59.5779C49.566 60.7098 47.6964 61.6294 45.7525 62.3387C43.8048 63.0395 41.7792 63.5168 39.7282 63.7745C37.676 64.0245 35.5998 64.052 33.5438 63.8696C28.4808 63.4059 23.5497 61.6529 19.329 58.8149C17.2192 57.3964 15.2866 55.7101 13.5996 53.8033L13.2838 53.4453L12.9745 53.0707C12.7651 52.8232 12.5695 52.5646 12.3747 52.3052C11.9834 51.7879 11.6244 51.247 11.2791 50.6982C10.5993 49.5935 10.0222 48.4275 9.54587 47.2254C8.58674 44.8203 8.07147 42.2657 7.90755 39.7134C7.75508 37.1578 7.95925 34.5985 8.46307 32.1116C9.48062 27.1376 11.6492 22.4345 14.7553 18.4245C16.6339 16.0073 18.9715 13.9032 21.5351 12.2896C22.7671 11.5215 23.874 11.0433 24.811 10.7584C25.2779 10.6114 25.7093 10.5257 26.0914 10.4612C26.4801 10.4119 26.8189 10.3805 27.1233 10.3919C28.0068 10.4196 28.088 10.7458 27.5452 11.231C27.4773 11.2919 27.3992 11.3544 27.3121 11.4208C27.226 11.4898 27.1304 11.5614 27.0255 11.6354C26.9207 11.7094 26.8065 11.7856 26.6833 11.864C26.5621 11.9473 26.4319 12.0329 26.2929 12.1206C25.7377 12.4735 25.0519 12.886 24.2662 13.3916C22.2717 14.6583 20.2515 16.2881 18.5492 18.0634C16.5824 20.0986 14.9268 22.4508 13.6339 24.9864C12.3369 27.5202 11.3995 30.242 10.8857 33.0332C10.6244 34.428 10.4815 35.8411 10.4433 37.2523C10.4169 38.6633 10.4964 40.0738 10.7161 41.4581C11.1453 44.2265 12.1075 46.8941 13.5974 49.2162C14.0119 49.8544 14.467 50.4733 14.9552 51.0674C15.444 51.6522 15.9906 52.2346 16.5367 52.7917C17.6462 53.8983 18.8204 54.9204 20.0116 55.8425C20.9604 56.582 21.9648 57.2559 23.0131 57.8582C24.0624 58.4587 25.1565 58.9852 26.2816 59.4371C28.5319 60.341 30.9099 60.9419 33.3237 61.206C38.1503 61.752 43.1124 60.9504 47.4715 58.8674C50.7187 57.331 53.605 55.028 55.9021 52.224C56.4724 51.5194 57.0197 50.7945 57.5244 50.0382C58.0245 49.2792 58.5077 48.5069 58.938 47.7028L59.1034 47.4037L59.2598 47.0994L59.5719 46.4904L59.8653 45.8715L60.0121 45.562L60.1424 45.2565C60.2256 45.0518 60.3226 44.8531 60.3953 44.6435L60.625 44.0199C60.7583 43.5964 60.8995 43.1753 61.0051 42.742C61.1152 42.3605 61.1869 41.9679 61.2749 41.5797L61.3776 40.9899L61.4286 40.6949L61.4667 40.3973C61.5839 39.6059 61.6286 38.8024 61.6604 37.9992C61.6931 36.3901 61.5854 34.7693 61.3158 33.1692C61.1934 32.3671 61.0123 31.5743 60.8239 30.7837C60.6157 29.9979 60.3978 29.2132 60.1276 28.4449C59.6071 26.9016 58.9503 25.4041 58.1844 23.9664C56.6443 21.1008 54.6496 18.4508 52.1622 16.3887C49.6722 14.3089 46.7406 12.7423 43.6503 11.6738C41.1789 10.8268 38.6816 10.2897 36.2513 10.0334C33.8198 9.77766 31.454 9.80443 29.2125 10.1027C28.9556 10.1404 28.7271 10.156 28.5342 10.1747C28.3412 10.1927 28.179 10.197 28.0488 10.1891C27.7884 10.1731 27.6556 10.1078 27.6613 10.003C27.667 9.89827 27.8114 9.75373 28.1047 9.58008C28.2513 9.4934 28.4342 9.39625 28.6591 9.31031C28.8836 9.22368 29.1439 9.1204 29.447 9.03783C30.3023 8.78711 31.1861 8.60551 32.084 8.45858C32.983 8.3249 33.897 8.23965 34.8177 8.20341C36.6586 8.14346 38.5235 8.27513 40.3498 8.59559C43.3601 9.10794 46.3267 10.2133 49.0598 11.6642C49.0738 11.6563 49.0869 11.6491 49.103 11.642Z" fill="black"/>
<path d="M30.1861 32.0238C28.8074 31.8826 27.3905 32.1365 26.1465 32.7475C27.9181 33.4322 29.9175 33.5115 31.7377 32.9691C31.9601 32.9028 32.2303 32.7429 32.1729 32.518C32.1422 32.3979 32.0247 32.3232 31.9139 32.2674C31.143 31.8793 30.2131 31.8199 29.399 32.1067" fill="black"/>
<path d="M31.3644 30.6135C31.672 30.7109 31.9669 30.8408 32.2443 30.9992C32.314 31.0375 32.3813 31.0819 32.4489 31.1233C32.5132 31.1643 32.6262 31.2308 32.7575 31.3352C32.8889 31.4424 33.0699 31.6037 33.2159 31.8872C33.3623 32.1752 33.4136 32.5199 33.3372 32.8602C33.3179 32.9516 33.2895 33.0274 33.2568 33.1071C33.2239 33.1845 33.1884 33.2458 33.148 33.312C33.1107 33.3687 33.0704 33.4225 33.0295 33.4713C32.9921 33.5135 32.9502 33.5585 32.912 33.5938C32.7577 33.7361 32.6221 33.8143 32.4986 33.8777C32.3747 33.9397 32.2617 33.9831 32.1467 34.0209L32.0596 34.0478L32.0106 34.0614L31.9139 34.0916C31.2322 34.3285 30.524 34.5007 29.7997 34.5906C29.076 34.6829 28.336 34.6841 27.6051 34.5867C27.27 34.5374 26.9352 34.4775 26.6062 34.39C26.2756 34.3085 25.9515 34.1999 25.6306 34.0823C24.8941 33.8124 24.5158 32.9965 24.7858 32.2599C24.9162 31.9041 25.1741 31.6318 25.4889 31.476L25.5156 31.4628C26.0422 31.2036 26.593 30.9981 27.1585 30.8534C27.7235 30.707 28.3024 30.6185 28.8846 30.5864C29.1655 30.5676 29.4527 30.67 29.7198 30.7779C29.9781 30.8866 30.118 31.2402 30.1678 31.6905C30.2048 32.0183 30.1647 32.3505 30.0872 32.6192C30.0086 32.8894 29.8955 33.0891 29.7589 33.1665C29.5858 33.2594 29.4082 33.2609 29.2338 33.2257C28.4315 33.0719 27.5765 33.299 26.9555 33.8263C26.8891 33.8811 26.8276 33.9463 26.7625 34.0013L26.6503 31.4443C26.7935 31.454 26.9234 31.4884 27.0329 31.5774C27.3144 31.8181 27.6557 31.9303 28.0015 31.9909C28.349 32.0531 28.6997 32.0702 29.0507 32.138C29.5768 32.2374 30.112 32.1689 30.6409 32.1191C30.7597 32.1092 30.8785 32.097 30.9965 32.0795C31.1156 32.0661 31.2332 32.0451 31.3514 32.0247L31.4403 32.0097L31.4513 32.0079L31.4525 32.0085L31.455 32.0102L31.4607 32.0131C31.4619 32.0138 31.4639 32.0149 31.4651 32.0161L31.4902 32.067C31.5207 32.128 31.561 32.1963 31.6051 32.2626C31.6923 32.3958 31.8077 32.5093 31.8819 32.5505C31.8962 32.5606 31.9196 32.569 31.9264 32.5724C31.9415 32.5772 31.9447 32.5778 31.9484 32.5784C31.9541 32.5787 31.9429 32.5781 31.9412 32.579C31.9345 32.5792 31.9283 32.58 31.9226 32.5814L31.9144 32.5838L31.9135 32.5841C31.8907 32.5899 31.944 32.5764 31.9385 32.5778L31.938 32.5779L31.9373 32.5781C31.9305 32.5784 31.8429 32.6169 31.7161 32.7864L31.6648 32.8573L31.6066 32.945L31.5388 33.0553L31.521 33.086C31.516 33.0947 31.5201 33.0882 31.5187 33.0899L31.5182 33.0883C31.5176 33.0861 31.5138 33.0823 31.5082 33.0777L31.4791 33.059C31.3987 33.0052 31.3124 32.9578 31.2227 32.9142C31.0433 32.8269 30.8463 32.7654 30.6426 32.7259C30.3135 32.6673 30.0154 32.4927 29.5148 32.0854C29.2851 31.8998 29.0617 31.345 29.2725 31.1369C29.5631 30.8532 29.9474 30.6636 30.3486 30.5806C30.6812 30.5106 31.0246 30.588 31.3537 30.6526C31.3573 30.6394 31.3606 30.6272 31.3644 30.6135Z" fill="black"/>
<path d="M40.8847 32.0664C39.8725 31.9061 38.816 32.0357 37.8725 32.4357C37.7661 32.4808 37.6507 32.5402 37.6134 32.6496C37.5371 32.8734 37.8296 33.0343 38.0603 33.0862C39.2448 33.3531 40.458 33.4924 41.6722 33.501C42.5158 33.507 43.4385 33.4172 44.0439 32.8297C42.9461 32.2267 41.6702 31.9529 40.4218 32.0526" fill="black"/>
<path d="M42.4779 30.7858C43.0198 30.9686 43.5317 31.2129 44.0123 31.495C44.2072 31.6065 44.3933 31.7328 44.5862 31.8422L44.6396 31.8724C45.1646 32.17 45.3489 32.8369 45.0513 33.3619C44.9916 33.467 44.9135 33.5614 44.8284 33.6381L44.6147 33.8289C44.2135 34.1757 43.7489 34.3985 43.319 34.5326C42.8844 34.6709 42.4727 34.735 42.0851 34.7757C41.692 34.8142 41.3504 34.8285 40.99 34.8351C40.6328 34.8401 40.2749 34.8311 39.9181 34.8045C39.4788 34.7718 39.0404 34.7206 38.6051 34.6486C38.3874 34.6137 38.1706 34.5722 37.9544 34.5279L37.7925 34.4933L37.7521 34.4846L37.6673 34.464C37.6053 34.4478 37.5468 34.4303 37.4876 34.4096C37.3702 34.3692 37.2539 34.3199 37.1263 34.2499C36.9981 34.1777 36.8641 34.0947 36.7033 33.9427C36.622 33.8638 36.5401 33.7743 36.4557 33.6496C36.4177 33.5961 36.3716 33.5147 36.3358 33.4417C36.3 33.3717 36.2637 33.2762 36.2368 33.1864C36.2091 33.0986 36.1898 32.9948 36.1786 32.8942C36.1664 32.7926 36.1674 32.6933 36.1747 32.5927C36.1819 32.4885 36.1989 32.4026 36.2211 32.314C36.2425 32.2269 36.2724 32.139 36.3111 32.0514C36.3873 31.879 36.4902 31.7303 36.5917 31.6167C36.6938 31.5022 36.7935 31.4196 36.8812 31.3562C37.0565 31.2317 37.1855 31.1753 37.2781 31.1335L37.4682 31.0565C37.5278 31.0321 37.5883 31.0105 37.6488 30.989C37.7694 30.9444 37.8921 30.9068 38.0146 30.8691C38.5067 30.7254 39.0119 30.6343 39.5214 30.6013C39.8297 30.5799 40.1443 30.6799 40.4328 30.7995C40.7123 30.9149 40.851 31.2798 40.8818 31.7321C40.9054 32.0621 40.8447 32.3913 40.753 32.6554C40.6599 32.9186 40.5387 33.1176 40.4039 33.1869C40.2322 33.2771 40.0623 33.2724 39.893 33.2384C39.5043 33.1609 39.0949 33.1914 38.723 33.3217C38.63 33.3544 38.5396 33.3933 38.4518 33.437L38.325 33.5068C38.3234 33.5084 38.3199 33.5107 38.3202 33.5116L38.3195 33.5133L38.3194 33.5137L38.3193 33.5139L38.3139 33.5017L38.2906 33.4505L38.2028 33.2675L38.1352 33.1355C38.0553 32.9855 38.0004 32.9031 37.9528 32.8417C37.8584 32.7206 37.8046 32.7154 37.8302 32.724C37.8104 32.7216 37.8166 32.7211 37.807 32.7212C37.8038 32.7216 37.8109 32.7208 37.8129 32.7198C37.8326 32.7157 37.8566 32.7046 37.8992 32.676C37.9774 32.6224 38.077 32.5057 38.1501 32.3846C38.2245 32.2651 38.2724 32.1451 38.2792 32.1233C38.2799 32.1217 38.283 32.1119 38.2813 32.1171L38.2776 32.129C38.2776 32.129 38.2667 32.166 38.2621 32.189L38.26 32.1987L38.2595 32.2011L38.2593 32.2023L38.2592 32.2029L38.2591 32.2033C38.4531 31.342 38.313 31.9645 38.3563 31.7723L38.3594 31.7721L38.3718 31.7714L38.3965 31.77L38.4459 31.7673C38.5118 31.7639 38.5774 31.762 38.6419 31.7631C38.7708 31.7666 38.8947 31.7862 39.0065 31.8526C39.3649 32.0623 39.7558 32.1443 40.1481 32.189C40.5414 32.234 40.9361 32.2433 41.3293 32.3115C41.9292 32.417 42.4638 32.3666 42.854 32.2924C43.064 32.2548 43.2157 32.1948 43.3478 32.1123L43.5627 33.7055C43.0096 33.3253 42.3701 33.0339 41.6868 32.8759C41.2978 32.7867 40.9508 32.5703 40.544 32.0604C40.357 31.824 40.302 31.23 40.5304 31.0821C40.8485 30.8743 41.2118 30.756 41.5761 30.712C41.8772 30.6742 42.1748 30.7651 42.4673 30.8249C42.4709 30.8117 42.4742 30.7995 42.4779 30.7858Z" fill="black"/>
<path d="M48.1534 48.7658C47.4224 48.0049 46.6062 47.3148 45.7257 46.7037C45.4874 46.5501 45.2554 46.3815 45.0075 46.2405C44.7583 46.1024 44.5058 45.969 44.2486 45.8477C42.8552 45.2431 41.3794 44.8526 39.8944 44.6685C38.4071 44.484 36.9164 44.5143 35.4493 44.7387C33.6474 45.0401 31.88 45.6094 30.2616 46.4799C29.8484 46.681 29.4654 46.9357 29.0693 47.1675C28.8769 47.2923 28.6907 47.4266 28.5006 47.5551L28.2166 47.7494L27.9454 47.9609C27.7654 48.1028 27.5823 48.2412 27.4039 48.385L26.8892 48.8404C26.7128 48.9873 26.5537 49.1518 26.3926 49.3142C26.2338 49.4786 26.0629 49.6324 25.913 49.8047C25.7318 50.0124 25.5305 50.2038 25.318 50.3881C25.1169 50.581 24.9118 50.7722 24.7021 50.96C24.6521 51.005 24.6006 51.0456 24.5478 51.0822C24.4973 51.1202 24.4476 51.1557 24.3953 51.1864C24.2914 51.2482 24.182 51.2945 24.0685 51.3276C23.8414 51.3938 23.5972 51.4072 23.3471 51.3826C22.9828 51.3466 22.6948 51.1762 22.5446 50.9066C22.3938 50.6379 22.3821 50.2679 22.556 49.8594C22.6078 49.7281 22.6797 49.6069 22.7545 49.485C22.8296 49.3633 22.9106 49.2432 22.9956 49.1254C23.0806 49.0075 23.1697 48.892 23.261 48.7794C23.3573 48.6711 23.4588 48.5681 23.5591 48.4671L23.9045 48.1186L24.0756 47.9439L24.2557 47.7785L24.9706 47.1161C25.2185 46.907 25.4641 46.6963 25.7079 46.4837C25.955 46.2754 26.2147 46.0828 26.465 45.8783C27.4864 45.0872 28.5549 44.3571 29.6806 43.6876C29.9957 43.5128 30.3122 43.3171 30.6421 43.1547C30.9763 43.0031 31.3176 42.8699 31.6617 42.7889C32.7753 42.5727 33.8616 42.322 34.9737 42.1579C35.2508 42.1153 35.5313 42.093 35.81 42.0598L36.2288 42.0149L36.6502 41.9977C36.9312 41.9903 37.212 41.9721 37.4927 41.9811C37.7734 41.994 38.0537 42.0105 38.3329 42.0322C38.5409 42.0427 38.7465 42.0774 38.9529 42.1021L39.5715 42.1773C39.9821 42.2371 40.3896 42.3166 40.7988 42.3831C41.2023 42.4771 41.6075 42.5653 42.0076 42.6702L42.6007 42.852C42.797 42.9162 42.9971 42.9688 43.1875 43.0494C45.9517 44.0624 48.4344 45.7414 50.3937 47.8802C50.4965 47.9818 50.5844 48.0964 50.673 48.2083C50.7609 48.3208 50.8458 48.4344 50.927 48.5489C51.0083 48.6633 51.086 48.7788 51.1597 48.8952C51.2273 49.0169 51.2903 49.14 51.3493 49.2635C51.4655 49.5119 51.5704 49.7586 51.6425 50.0162C51.7083 50.2785 51.7531 50.5428 51.7735 50.8077C51.8099 51.2967 51.2816 51.5799 50.9087 51.2752C50.6423 51.0583 50.3982 50.8239 50.131 50.6057C49.872 50.3819 49.6317 50.1442 49.3709 49.9263C48.9658 49.5496 48.5917 49.1255 48.1843 48.7391C48.1741 48.7479 48.1646 48.7562 48.1534 48.7658Z" fill="black"/>
</svg>
